#tb 0: 1/44100
#media_type 0: audio
#codec_id 0: pcm_s16le
#sample_rate 0: 44100
#channel_layout_name 0: 9 channels
0,          0,          0,     4096,    73728, 0xb4d44a88
0,       4096,       4096,     4096,    73728, 0x70ff76f1
0,       8192,       8192,     4096,    73728, 0xa8b2478e
0,      12288,      12288,     4096,    73728, 0xf90bcc06
0,      16384,      16384,     4096,    73728, 0xbb448d25
0,      20480,      20480,     4096,    73728, 0x76eb3638
0,      24576,      24576,     4096,    73728, 0x46559bdd
0,      28672,      28672,     4096,    73728, 0x8f1d34d3
0,      32768,      32768,     4096,    73728, 0xa426b851
0,      36864,      36864,     4096,    73728, 0x764b4d68
0,      40960,      40960,     4096,    73728, 0x7d1a8d7b
0,      45056,      45056,     4096,    73728, 0x2f8a772d
0,      49152,      49152,     4096,    73728, 0x107f837d
0,      53248,      53248,     4096,    73728, 0xa58d6617
0,      57344,      57344,     4096,    73728, 0x7d1a8d7b
0,      61440,      61440,     4096,    73728, 0x2f8a772d
0,      65536,      65536,     4096,    73728, 0x107f837d
0,      69632,      69632,     4096,    73728, 0xa58d6617
0,      73728,      73728,     4096,    73728, 0x7d1a8d7b
0,      77824,      77824,     4096,    73728, 0x2f8a772d
